<svg width="20" height="20" viewBox="0 0 20 20" fill="none" xmlns="http://www.w3.org/2000/svg">
<g clip-path="url(#clip0_133_909)">
<path d="M17.5479 10.6656L11.9194 16.2996C11.7431 16.476 11.5041 16.575 11.2549 16.575C11.0057 16.575 10.7667 16.476 10.5904 16.2996C10.4142 16.1232 10.3152 15.8839 10.3152 15.6344C10.3152 15.3849 10.4142 15.1458 10.5904 14.9693L14.6172 10.9402H3.12559C2.87679 10.9402 2.63819 10.8413 2.46226 10.6652C2.28633 10.4891 2.1875 10.2503 2.1875 10.0012C2.1875 9.7522 2.28633 9.51336 2.46226 9.33727C2.63819 9.16117 2.87679 9.06224 3.12559 9.06224H14.6172L10.592 5.0308C10.4158 4.8544 10.3167 4.61515 10.3167 4.36568C10.3167 4.11621 10.4158 3.87695 10.592 3.70055C10.7682 3.52415 11.0072 3.42505 11.2565 3.42505C11.5057 3.42505 11.7447 3.52415 11.9209 3.70055L17.5494 9.33455C17.637 9.42191 17.7063 9.52569 17.7536 9.63995C17.8009 9.75423 17.8251 9.87671 17.825 10.0004C17.8248 10.1241 17.8003 10.2465 17.7528 10.3607C17.7052 10.4748 17.6356 10.5784 17.5479 10.6656Z" fill="#102F2C"/>
</g>
<defs>
<clipPath id="clip0_133_909">
<rect width="15.6375" height="13.15" fill="white" transform="translate(2.1875 3.42505)"/>
</clipPath>
</defs>
</svg>
