<svg width="17" height="17" viewBox="0 0 17 17" fill="none" xmlns="http://www.w3.org/2000/svg">
<path d="M15.5833 11.4679C15.5833 14.0463 14.0462 15.5833 11.4679 15.5833H10.625C10.2354 15.5833 9.91663 15.2646 9.91663 14.875V10.7879C9.91663 10.5967 10.0725 10.4338 10.2637 10.4338L11.5104 10.4125C11.6095 10.4054 11.6945 10.3346 11.7158 10.2354L11.9637 8.88251C11.985 8.75501 11.8858 8.63459 11.7512 8.63459L10.2425 8.65584C10.0441 8.65584 9.8883 8.50001 9.88122 8.30876L9.85288 6.57333C9.85288 6.46 9.94495 6.36084 10.0654 6.36084L11.7654 6.3325C11.8858 6.3325 11.9779 6.24043 11.9779 6.12001L11.9495 4.41999C11.9495 4.29958 11.8575 4.2075 11.737 4.2075L9.82454 4.23584C8.64871 4.25709 7.71372 5.22042 7.73497 6.39625L7.77038 8.34417C7.77746 8.5425 7.62163 8.69834 7.4233 8.70542L6.57329 8.71958C6.45288 8.71958 6.3608 8.81166 6.3608 8.93207L6.38205 10.2779C6.38205 10.3983 6.47412 10.4904 6.59454 10.4904L7.44455 10.4763C7.64288 10.4763 7.7987 10.6321 7.80579 10.8233L7.86953 14.8608C7.87662 15.2575 7.55787 15.5833 7.1612 15.5833H5.53204C2.95371 15.5833 1.41663 14.0462 1.41663 11.4608V5.53208C1.41663 2.95375 2.95371 1.41667 5.53204 1.41667H11.4679C14.0462 1.41667 15.5833 2.95375 15.5833 5.53208V11.4679Z" fill="#919F9E"/>
</svg>
