<svg width="18" height="18" viewBox="0 0 18 18" fill="none" xmlns="http://www.w3.org/2000/svg">
<g clip-path="url(#clip0_221_1040)">
<path d="M17.7856 9.16863C17.7856 8.43117 17.7258 7.89303 17.5963 7.33496H9.17529V10.6634H14.1182C14.0186 11.4906 13.4805 12.7363 12.2846 13.5734L12.2678 13.6848L14.9303 15.7475L15.1148 15.7659C16.8089 14.2013 17.7856 11.8992 17.7856 9.16863Z" fill="#4285F4"/>
<path d="M9.17525 17.9384C11.5969 17.9384 13.6298 17.1411 15.1148 15.7659L12.2845 13.5734C11.5271 14.1015 10.5106 14.4703 9.17525 14.4703C6.80344 14.4703 4.79039 12.9057 4.0728 10.7432L3.96761 10.7521L1.19905 12.8947L1.16284 12.9954C2.63774 15.9252 5.66731 17.9384 9.17525 17.9384Z" fill="#34A853"/>
<path d="M4.07269 10.7431C3.88334 10.185 3.77376 9.58704 3.77376 8.9692C3.77376 8.35129 3.88335 7.75338 4.06273 7.19531L4.05771 7.07645L1.25445 4.89941L1.16273 4.94304C0.554856 6.15886 0.206055 7.52419 0.206055 8.9692C0.206055 10.4142 0.554856 11.7795 1.16273 12.9953L4.07269 10.7431Z" fill="#FBBC05"/>
<path d="M9.17525 3.46802C10.8594 3.46802 11.9955 4.19551 12.6433 4.80346L15.1745 2.33196C13.6199 0.886946 11.5969 0 9.17525 0C5.66731 0 2.63774 2.01305 1.16284 4.94292L4.06283 7.19519C4.79039 5.03265 6.80344 3.46802 9.17525 3.46802Z" fill="#EB4335"/>
</g>
<defs>
<clipPath id="clip0_221_1040">
<rect width="18" height="18" fill="white"/>
</clipPath>
</defs>
</svg>
