<svg width="17" height="17" viewBox="0 0 17 17" fill="none" xmlns="http://www.w3.org/2000/svg">
<path d="M9.22817 1.41736C9.74506 1.41538 10.262 1.42058 10.7787 1.43295L10.9161 1.43791C11.0748 1.44357 11.2313 1.45066 11.4205 1.45916C12.1741 1.49457 12.6884 1.61357 13.1396 1.78853C13.6071 1.96845 14.0009 2.21211 14.3948 2.60595C14.7548 2.95984 15.0335 3.38791 15.2115 3.86041C15.3864 4.31161 15.5054 4.82657 15.5408 5.58024C15.5493 5.76866 15.5564 5.92591 15.5621 6.08457L15.5663 6.22199C15.5789 6.7385 15.5844 7.25516 15.5826 7.77182L15.5833 8.30024V9.22816C15.5851 9.74505 15.5796 10.262 15.567 10.7787L15.5628 10.9161C15.5571 11.0748 15.55 11.2313 15.5415 11.4204C15.5061 12.1741 15.3857 12.6884 15.2115 13.1396C15.0341 13.6126 14.7554 14.041 14.3948 14.3947C14.0406 14.7548 13.6123 15.0335 13.1396 15.2114C12.6884 15.3864 12.1741 15.5054 11.4205 15.5408C11.2313 15.5493 11.0748 15.5564 10.9161 15.5621L10.7787 15.5663C10.262 15.5789 9.74507 15.5843 9.22817 15.5826L8.69975 15.5833H7.77254C7.25565 15.5851 6.73875 15.5796 6.222 15.567L6.08459 15.5628C5.91643 15.5567 5.74832 15.5496 5.58025 15.5415C4.82658 15.5061 4.31234 15.3857 3.86042 15.2114C3.38774 15.0339 2.95959 14.7552 2.60596 14.3947C2.24545 14.0408 1.96649 13.6124 1.78854 13.1396C1.61359 12.6884 1.49459 12.1741 1.45917 11.4204C1.45128 11.2524 1.4442 11.0843 1.43792 10.9161L1.43438 10.7787C1.42132 10.262 1.41541 9.74506 1.41667 9.22816V7.77182C1.41469 7.25517 1.41989 6.7385 1.43225 6.22199L1.43721 6.08457C1.44288 5.92591 1.44996 5.76866 1.45846 5.58024C1.49388 4.82586 1.61288 4.31232 1.78784 3.86041C1.96589 3.38768 2.24539 2.95972 2.60667 2.60666C2.96005 2.24594 3.38793 1.96673 3.86042 1.78853C4.31234 1.61357 4.82588 1.49457 5.58025 1.45916L6.08459 1.43791L6.222 1.43437C6.73851 1.42131 7.25517 1.41541 7.77183 1.41666L9.22817 1.41736ZM8.5 4.95903C8.03074 4.95239 7.56483 5.03909 7.12936 5.21408C6.69389 5.38907 6.29754 5.64886 5.96335 5.97836C5.62916 6.30786 5.36379 6.7005 5.18266 7.13345C5.00152 7.5664 4.90825 8.03103 4.90825 8.50034C4.90825 8.96966 5.00152 9.43429 5.18266 9.86724C5.36379 10.3002 5.62916 10.6928 5.96335 11.0223C6.29754 11.3518 6.69389 11.6116 7.12936 11.7866C7.56483 11.9616 8.03074 12.0483 8.5 12.0417C9.43931 12.0417 10.3401 11.6685 11.0043 11.0043C11.6685 10.3401 12.0417 9.4393 12.0417 8.49999C12.0417 7.56068 11.6685 6.65984 11.0043 5.99565C10.3401 5.33146 9.43931 4.95903 8.5 4.95903ZM8.5 6.3757C8.78228 6.3705 9.06276 6.4216 9.32507 6.52601C9.58737 6.63043 9.82624 6.78607 10.0277 6.98383C10.2292 7.1816 10.3893 7.41754 10.4985 7.67786C10.6078 7.93818 10.6641 8.21766 10.6641 8.49998C10.6642 8.78231 10.608 9.06181 10.4988 9.32217C10.3896 9.58252 10.2296 9.81851 10.0282 10.0163C9.82681 10.2142 9.58799 10.3699 9.32572 10.4744C9.06345 10.5789 8.78299 10.6301 8.50071 10.625C7.93713 10.625 7.39662 10.4011 6.99811 10.0026C6.59959 9.60408 6.37571 9.06358 6.37571 8.49999C6.37571 7.93641 6.59959 7.3959 6.99811 6.99739C7.39662 6.59887 7.93713 6.37499 8.50071 6.37499L8.5 6.3757ZM12.2188 3.89653C11.9902 3.90568 11.7741 4.00289 11.6157 4.1678C11.4572 4.33272 11.3687 4.55254 11.3687 4.78124C11.3687 5.00994 11.4572 5.22976 11.6157 5.39468C11.7741 5.55959 11.9902 5.6568 12.2188 5.66595C12.4536 5.66595 12.6788 5.57266 12.8448 5.40662C13.0109 5.24057 13.1042 5.01536 13.1042 4.78053C13.1042 4.5457 13.0109 4.3205 12.8448 4.15445C12.6788 3.9884 12.4536 3.89512 12.2188 3.89512V3.89653Z" fill="#919F9E"/>
</svg>
