<svg preserveAspectRatio="none" width="100%" height="100%" overflow="visible" style="display: block;" viewBox="0 0 16.7902 16.1974" fill="none" xmlns="http://www.w3.org/2000/svg">
<path id="Vector" d="M16.367 7.4129L12.992 10.3251L14.0203 14.6804C14.077 14.9168 14.0624 15.1648 13.9782 15.3929C13.8942 15.621 13.7443 15.8191 13.5477 15.9621C13.351 16.1052 13.1165 16.1867 12.8736 16.1964C12.6306 16.2062 12.3902 16.1437 12.1827 16.0169L8.39526 13.6859L4.60551 16.0169C4.39809 16.1429 4.15799 16.2048 3.91547 16.1948C3.67295 16.1846 3.43884 16.1029 3.24261 15.9601C3.0464 15.8172 2.89684 15.6194 2.81279 15.3917C2.72874 15.1641 2.71394 14.9165 2.77026 14.6804L3.80226 10.3251L0.427266 7.4129C0.24374 7.25428 0.111009 7.04511 0.0456526 6.81151C-0.0197042 6.5779 -0.0147916 6.33022 0.0597771 6.09939C0.134346 5.86857 0.275265 5.66483 0.464938 5.51361C0.654609 5.3624 0.884627 5.27041 1.12626 5.24914L5.55126 4.89215L7.25826 0.761146C7.35066 0.536009 7.50791 0.343433 7.71005 0.2079C7.91217 0.0723666 8.15003 0 8.39339 0C8.63675 0 8.87461 0.0723666 9.07674 0.2079C9.27886 0.343433 9.43612 0.536009 9.52851 0.761146L11.2348 4.89215L15.6597 5.24914C15.9019 5.26962 16.1326 5.3611 16.323 5.5121C16.5133 5.66311 16.6548 5.86693 16.7299 6.09804C16.8049 6.32914 16.8101 6.57726 16.7447 6.81129C16.6794 7.04531 16.5465 7.25485 16.3626 7.41364L16.367 7.4129Z" fill="currentColor"/>
</svg>
