<svg preserveAspectRatio="none" width="100%" height="100%" overflow="visible" style="display: block;" viewBox="0 0 40 40" fill="none" xmlns="http://www.w3.org/2000/svg">
<g id="message">
<path id="Vector" d="M20 0C8.95469 0 0 8.95469 0 20C0 31.0453 8.95469 40 20 40C31.0453 40 40 31.0453 40 20C40 8.95469 31.0453 0 20 0ZM11.3977 12.2805H28.6023C29.1597 12.2795 29.6988 12.4791 30.1211 12.843L20.032 18.9844L10.625 12.4109C10.8733 12.3241 11.1346 12.28 11.3977 12.2805ZM30.9375 25.3844C30.9375 26.0037 30.6915 26.5977 30.2535 27.0356C29.8156 27.4735 29.2217 27.7195 28.6023 27.7195H11.3977C10.7783 27.7195 10.1844 27.4735 9.74645 27.0356C9.30852 26.5977 9.0625 26.0037 9.0625 25.3844V14.6156C9.06194 14.2541 9.14595 13.8975 9.30781 13.5742L19.5109 20.7031C19.6468 20.7981 19.8074 20.8515 19.973 20.8566C20.1387 20.8617 20.3023 20.8184 20.4437 20.732L30.9227 14.3578C30.9324 14.4442 30.9373 14.531 30.9375 14.618V25.3844Z" fill="var(--fill-0, #E6E9ED)"/>
</g>
</svg>
